<svg width="45" height="44" viewBox="0 0 45 44" fill="none" xmlns="http://www.w3.org/2000/svg">
<rect x="0.333252" width="44" height="44" rx="8" fill="#402B9C"/>
<path d="M22.3333 17.625C21.468 17.625 20.6221 17.8816 19.9026 18.3623C19.1832 18.8431 18.6224 19.5263 18.2913 20.3258C17.9601 21.1252 17.8735 22.0049 18.0423 22.8535C18.2111 23.7022 18.6278 24.4817 19.2397 25.0936C19.8515 25.7054 20.6311 26.1221 21.4797 26.2909C22.3284 26.4597 23.2081 26.3731 24.0075 26.042C24.8069 25.7108 25.4902 25.1501 25.9709 24.4306C26.4517 23.7112 26.7083 22.8653 26.7083 22C26.7083 20.8397 26.2473 19.7269 25.4268 18.9064C24.6064 18.0859 23.4936 17.625 22.3333 17.625ZM22.3333 24.625C21.8141 24.625 21.3066 24.471 20.8749 24.1826C20.4432 23.8942 20.1067 23.4842 19.9081 23.0045C19.7094 22.5249 19.6574 21.9971 19.7587 21.4879C19.86 20.9787 20.11 20.511 20.4771 20.1438C20.8442 19.7767 21.3119 19.5267 21.8211 19.4254C22.3303 19.3242 22.8581 19.3761 23.3378 19.5748C23.8175 19.7735 24.2274 20.1099 24.5159 20.5416C24.8043 20.9733 24.9583 21.4808 24.9583 22C24.9583 22.6962 24.6817 23.3639 24.1894 23.8562C23.6971 24.3484 23.0294 24.625 22.3333 24.625ZM34.5833 14.125H10.0833C9.85119 14.125 9.62863 14.2172 9.46453 14.3813C9.30044 14.5454 9.20825 14.7679 9.20825 15V29C9.20825 29.2321 9.30044 29.4546 9.46453 29.6187C9.62863 29.7828 9.85119 29.875 10.0833 29.875H34.5833C34.8153 29.875 35.0379 29.7828 35.202 29.6187C35.3661 29.4546 35.4583 29.2321 35.4583 29V15C35.4583 14.7679 35.3661 14.5454 35.202 14.3813C35.0379 14.2172 34.8153 14.125 34.5833 14.125ZM29.5137 28.125H15.1528C14.859 27.1314 14.3213 26.2272 13.5887 25.4945C12.8561 24.7619 11.9518 24.2242 10.9583 23.9305V20.0695C11.9518 19.7758 12.8561 19.2381 13.5887 18.5055C14.3213 17.7728 14.859 16.8686 15.1528 15.875H29.5137C29.8075 16.8686 30.3452 17.7728 31.0778 18.5055C31.8104 19.2381 32.7147 19.7758 33.7083 20.0695V23.9305C32.7147 24.2242 31.8104 24.7619 31.0778 25.4945C30.3452 26.2272 29.8075 27.1314 29.5137 28.125ZM33.7083 18.2123C32.6587 17.7611 31.8222 16.9245 31.3709 15.875H33.7083V18.2123ZM13.2956 15.875C12.8443 16.9245 12.0078 17.7611 10.9583 18.2123V15.875H13.2956ZM10.9583 25.7877C12.0078 26.2389 12.8443 27.0755 13.2956 28.125H10.9583V25.7877ZM31.3709 28.125C31.8222 27.0755 32.6587 26.2389 33.7083 25.7877V28.125H31.3709Z" fill="white"/>
</svg>
