<svg width="44" height="44" viewBox="0 0 44 44" fill="none" xmlns="http://www.w3.org/2000/svg">
<rect width="44" height="44" rx="8" fill="#0068BC"/>
<path d="M15 33.6667C14.3584 33.6667 13.8089 33.438 13.3515 32.9807C12.8942 32.5233 12.6659 31.9742 12.6667 31.3333V17.3333C12.6667 16.6917 12.8954 16.1422 13.3527 15.6848C13.81 15.2275 14.3591 14.9992 15 15H17.3334C17.3334 13.7167 17.7903 12.6181 18.7042 11.7042C19.6181 10.7903 20.7167 10.3333 22 10.3333C23.2834 10.3333 24.382 10.7903 25.2959 11.7042C26.2097 12.6181 26.6667 13.7167 26.6667 15H29C29.6417 15 30.1912 15.2287 30.6485 15.686C31.1059 16.1433 31.3341 16.6925 31.3334 17.3333V31.3333C31.3334 31.975 31.1047 32.5245 30.6474 32.9818C30.19 33.4392 29.6409 33.6675 29 33.6667H15ZM15 31.3333H29V17.3333H26.6667V19.6667C26.6667 19.9972 26.5547 20.2745 26.3307 20.4985C26.1067 20.7225 25.8298 20.8341 25.5 20.8333C25.1695 20.8333 24.8922 20.7213 24.6682 20.4973C24.4442 20.2733 24.3326 19.9965 24.3334 19.6667V17.3333H19.6667V19.6667C19.6667 19.9972 19.5547 20.2745 19.3307 20.4985C19.1067 20.7225 18.8298 20.8341 18.5 20.8333C18.1695 20.8333 17.8922 20.7213 17.6682 20.4973C17.4442 20.2733 17.3326 19.9965 17.3334 19.6667V17.3333H15V31.3333ZM19.6667 15H24.3334C24.3334 14.3583 24.1047 13.8088 23.6474 13.3515C23.19 12.8942 22.6409 12.6659 22 12.6667C21.3584 12.6667 20.8089 12.8953 20.3515 13.3527C19.8942 13.81 19.6659 14.3591 19.6667 15Z" fill="white"/>
</svg>
